<svg viewBox="-265.0857142857143 -280 530.1714285714286 380" xmlns="http://www.w3.org/2000/svg" xmlns:xlink="http://www.w3.org/1999/xlink" version="1.1" class="jsx-2263963463 artboard-inner" style="width: 269.271px; height: 193px; max-height: 100%;"><g transform="translate(-265.0857142857143 100) scale(1.984126984126984)" fill="#232323"><g id="line1"><path d="M33.120-50.400L33.120-33.984L12.240-33.984L12.240-50.400L0-50.400L0 0L12.240 0L12.240-7.848L33.120-7.848L33.120 0L45.360 0L45.360-50.400L33.120-50.400ZM33.120-18.648L12.240-18.648L12.240-23.256L33.120-23.256L33.120-18.648Z"></path><path d="M94.450-33.840L94.450-50.400L82.210-50.400L82.210-33.840C82.210-28.008 77.458-23.256 71.626-23.256C65.794-23.256 61.042-28.008 61.042-33.840L61.042-50.400L48.802-50.400L48.802-33.840C48.802-23.328 55.858-14.472 65.506-11.808L65.506 0L77.746 0L77.746-11.880C87.394-14.544 94.450-23.400 94.450-33.840Z"></path><path d="M136.699-50.400L97.891-50.400L97.891 0L136.699 0C150.595 0 161.899-11.304 161.899-25.200C161.899-39.096 150.595-50.400 136.699-50.400ZM136.699-12.528L110.131-12.528L110.131-37.872L136.699-37.872C143.683-37.872 149.371-32.184 149.371-25.200C149.371-18.216 143.683-12.528 136.699-12.528Z"></path><path d="M165.341 0L177.581 0L177.581-12.240L208.613-12.240L215.741 0L229.277 0L220.493-15.120C225.965-18.432 229.565-24.480 229.565-31.320C229.565-41.832 220.997-50.400 210.485-50.400L165.341-50.400L165.341 0ZM177.581-23.040L177.581-39.600L210.485-39.600C215.021-39.600 218.765-35.856 218.765-31.320C218.765-26.712 215.021-23.040 210.485-23.040L177.581-23.040Z"></path><path d="M250.070-50.400C240.638-50.400 233.006-42.768 233.006-33.264C233.006-23.832 240.638-16.200 250.070-16.200C259.574-16.200 267.206-23.832 267.206-33.264C267.206-42.768 259.574-50.400 250.070-50.400ZM250.070-26.784C246.470-26.784 243.590-29.664 243.590-33.264C243.590-36.864 246.470-39.816 250.070-39.816C253.670-39.816 256.622-36.864 256.622-33.264C256.622-29.664 253.670-26.784 250.070-26.784ZM233.006 0L267.206 0L267.206-10.800L233.006-10.800L233.006 0Z"></path></g></g><g transform="translate(-164.04057520068528 -310.4235065711043) scale(3.130635033189432)" id="logomark"><g fill="#232323"><path d="M40.703 54.953c0-3.494 1.526-8.489 3.802-14.001-4.137-7.347-7.755-13.026-7.755-13.026S17 58.918 17 69.824c0 10.908 8.843 19.75 19.75 19.75 7.975 0 14.829-4.736 17.947-11.542-8.309-4.356-13.994-13.064-13.994-23.079z"></path><path d="M66.75 9.718c-5.688 9.256-15.105 25.705-19.127 36.93-1.196 3.338-1.92 6.22-1.92 8.306 0 7.759 4.232 14.534 10.498 18.185A20.914 20.914 0 0 0 66.75 76c11.605 0 21.047-9.441 21.047-21.047 0-9.106-13.668-33.228-21.047-45.235z"></path></g></g></svg>